<?xml version="1.0" encoding="UTF-8" standalone="no"?>
<!DOCTYPE svg PUBLIC "-//W3C//DTD SVG 1.1//EN"
 "http://www.w3.org/Graphics/SVG/1.1/DTD/svg11.dtd">
<!-- Generated by graphviz version 2.38.0 (20140413.2041)
 -->
<!-- Title: G Pages: 1 -->
<svg width="767pt" height="1650pt"
 viewBox="0.00 0.00 767.05 1650.00" xmlns="http://www.w3.org/2000/svg" xmlns:xlink="http://www.w3.org/1999/xlink">
<g id="graph0" class="graph" transform="scale(1 1) rotate(0) translate(4 1646)">
<title>G</title>
<polygon fill="white" stroke="none" points="-4,4 -4,-1646 763.053,-1646 763.053,4 -4,4"/>
<g id="clust1" class="cluster"><title>cluster_Global</title>
<path fill="none" stroke="gray" d="M185.527,-314C185.527,-314 739.053,-314 739.053,-314 745.053,-314 751.053,-320 751.053,-326 751.053,-326 751.053,-1622 751.053,-1622 751.053,-1628 745.053,-1634 739.053,-1634 739.053,-1634 185.527,-1634 185.527,-1634 179.527,-1634 173.527,-1628 173.527,-1622 173.527,-1622 173.527,-326 173.527,-326 173.527,-320 179.527,-314 185.527,-314"/>
<text text-anchor="middle" x="462.29" y="-1621.2" font-family="Times New Roman,serif" font-size="11.00" fill="gray">Global</text>
</g>
<g id="clust2" class="cluster"><title>cluster_\App</title>
<path fill="none" stroke="gray" d="M193.527,-322C193.527,-322 731.053,-322 731.053,-322 737.053,-322 743.053,-328 743.053,-334 743.053,-334 743.053,-1594 743.053,-1594 743.053,-1600 737.053,-1606 731.053,-1606 731.053,-1606 193.527,-1606 193.527,-1606 187.527,-1606 181.527,-1600 181.527,-1594 181.527,-1594 181.527,-334 181.527,-334 181.527,-328 187.527,-322 193.527,-322"/>
<text text-anchor="middle" x="462.29" y="-1593.2" font-family="Times New Roman,serif" font-size="11.00" fill="gray">App</text>
</g>
<g id="clust3" class="cluster"><title>cluster_\App\Controller</title>
<path fill="none" stroke="gray" d="M597.053,-1424C597.053,-1424 723.053,-1424 723.053,-1424 729.053,-1424 735.053,-1430 735.053,-1436 735.053,-1436 735.053,-1566 735.053,-1566 735.053,-1572 729.053,-1578 723.053,-1578 723.053,-1578 597.053,-1578 597.053,-1578 591.053,-1578 585.053,-1572 585.053,-1566 585.053,-1566 585.053,-1436 585.053,-1436 585.053,-1430 591.053,-1424 597.053,-1424"/>
<text text-anchor="middle" x="660.053" y="-1565.2" font-family="Times New Roman,serif" font-size="11.00" fill="gray">Controller</text>
</g>
<g id="clust4" class="cluster"><title>cluster_\App\Controller\GraphQL</title>
<path fill="none" stroke="gray" d="M605.053,-1478C605.053,-1478 715.053,-1478 715.053,-1478 721.053,-1478 727.053,-1484 727.053,-1490 727.053,-1490 727.053,-1538 727.053,-1538 727.053,-1544 721.053,-1550 715.053,-1550 715.053,-1550 605.053,-1550 605.053,-1550 599.053,-1550 593.053,-1544 593.053,-1538 593.053,-1538 593.053,-1490 593.053,-1490 593.053,-1484 599.053,-1478 605.053,-1478"/>
<text text-anchor="middle" x="660.053" y="-1537.2" font-family="Times New Roman,serif" font-size="11.00" fill="gray">GraphQL</text>
</g>
<g id="clust5" class="cluster"><title>cluster_\App\Entity</title>
<path fill="none" stroke="gray" d="M637.053,-1290C637.053,-1290 683.053,-1290 683.053,-1290 689.053,-1290 695.053,-1296 695.053,-1302 695.053,-1302 695.053,-1404 695.053,-1404 695.053,-1410 689.053,-1416 683.053,-1416 683.053,-1416 637.053,-1416 637.053,-1416 631.053,-1416 625.053,-1410 625.053,-1404 625.053,-1404 625.053,-1302 625.053,-1302 625.053,-1296 631.053,-1290 637.053,-1290"/>
<text text-anchor="middle" x="660.053" y="-1403.2" font-family="Times New Roman,serif" font-size="11.00" fill="gray">Entity</text>
</g>
<g id="clust6" class="cluster"><title>cluster_\App\GraphQL</title>
<path fill="none" stroke="gray" d="M201.527,-564C201.527,-564 716.053,-564 716.053,-564 722.053,-564 728.053,-570 728.053,-576 728.053,-576 728.053,-1270 728.053,-1270 728.053,-1276 722.053,-1282 716.053,-1282 716.053,-1282 201.527,-1282 201.527,-1282 195.527,-1282 189.527,-1276 189.527,-1270 189.527,-1270 189.527,-576 189.527,-576 189.527,-570 195.527,-564 201.527,-564"/>
<text text-anchor="middle" x="458.79" y="-1269.2" font-family="Times New Roman,serif" font-size="11.00" fill="gray">GraphQL</text>
</g>
<g id="clust7" class="cluster"><title>cluster_\App\GraphQL\Buffer</title>
<path fill="none" stroke="gray" d="M209.527,-1182C209.527,-1182 701.553,-1182 701.553,-1182 707.553,-1182 713.553,-1188 713.553,-1194 713.553,-1194 713.553,-1242 713.553,-1242 713.553,-1248 707.553,-1254 701.553,-1254 701.553,-1254 209.527,-1254 209.527,-1254 203.527,-1254 197.527,-1248 197.527,-1242 197.527,-1242 197.527,-1194 197.527,-1194 197.527,-1188 203.527,-1182 209.527,-1182"/>
<text text-anchor="middle" x="455.54" y="-1241.2" font-family="Times New Roman,serif" font-size="11.00" fill="gray">Buffer</text>
</g>
<g id="clust9" class="cluster"><title>cluster_\App\GraphQL\Service</title>
<path fill="none" stroke="gray" d="M615.053,-1048C615.053,-1048 705.053,-1048 705.053,-1048 711.053,-1048 717.053,-1054 717.053,-1060 717.053,-1060 717.053,-1162 717.053,-1162 717.053,-1168 711.053,-1174 705.053,-1174 705.053,-1174 615.053,-1174 615.053,-1174 609.053,-1174 603.053,-1168 603.053,-1162 603.053,-1162 603.053,-1060 603.053,-1060 603.053,-1054 609.053,-1048 615.053,-1048"/>
<text text-anchor="middle" x="660.053" y="-1161.2" font-family="Times New Roman,serif" font-size="11.00" fill="gray">Service</text>
</g>
<g id="clust8" class="cluster"><title>cluster_\App\GraphQL\Resolver</title>
<path fill="none" stroke="gray" d="M612.053,-968C612.053,-968 708.053,-968 708.053,-968 714.053,-968 720.053,-974 720.053,-980 720.053,-980 720.053,-1028 720.053,-1028 720.053,-1034 714.053,-1040 708.053,-1040 708.053,-1040 612.053,-1040 612.053,-1040 606.053,-1040 600.053,-1034 600.053,-1028 600.053,-1028 600.053,-980 600.053,-980 600.053,-974 606.053,-968 612.053,-968"/>
<text text-anchor="middle" x="660.053" y="-1027.2" font-family="Times New Roman,serif" font-size="11.00" fill="gray">Resolver</text>
</g>
<g id="clust10" class="cluster"><title>cluster_\App\GraphQL\Type</title>
<path fill="none" stroke="gray" d="M615.053,-726C615.053,-726 705.053,-726 705.053,-726 711.053,-726 717.053,-732 717.053,-738 717.053,-738 717.053,-948 717.053,-948 717.053,-954 711.053,-960 705.053,-960 705.053,-960 615.053,-960 615.053,-960 609.053,-960 603.053,-954 603.053,-948 603.053,-948 603.053,-738 603.053,-738 603.053,-732 609.053,-726 615.053,-726"/>
<text text-anchor="middle" x="660.053" y="-947.2" font-family="Times New Roman,serif" font-size="11.00" fill="gray">Type</text>
</g>
<g id="clust11" class="cluster"><title>cluster_\App\Repository</title>
<path fill="none" stroke="gray" d="M605.053,-484C605.053,-484 715.053,-484 715.053,-484 721.053,-484 727.053,-490 727.053,-496 727.053,-496 727.053,-544 727.053,-544 727.053,-550 721.053,-556 715.053,-556 715.053,-556 605.053,-556 605.053,-556 599.053,-556 593.053,-550 593.053,-544 593.053,-544 593.053,-496 593.053,-496 593.053,-490 599.053,-484 605.053,-484"/>
<text text-anchor="middle" x="660.053" y="-543.2" font-family="Times New Roman,serif" font-size="11.00" fill="gray">Repository</text>
</g>
<!-- \\App\\Controller\\GraphQL\\IndexController -->
<g id="node1" class="node"><title>\\App\\Controller\\GraphQL\\IndexController</title>
<polygon fill="none" stroke="black" points="719.053,-1522 601.053,-1522 601.053,-1486 719.053,-1486 719.053,-1522"/>
<text text-anchor="middle" x="660.053" y="-1501.2" font-family="Courier,monospace" font-size="11.00">IndexController</text>
</g>
<!-- \\Symfony\\Bundle\\FrameworkBundle\\Controller\\Controller -->
<g id="node21" class="node"><title>\\Symfony\\Bundle\\FrameworkBundle\\Controller\\Controller</title>
<ellipse fill="none" stroke="black" cx="264.527" cy="-288" rx="221.761" ry="18"/>
<text text-anchor="middle" x="264.527" y="-284.3" font-family="Times New Roman,serif" font-size="14.00" fill="gray">\Symfony\Bundle\FrameworkBundle\Controller\Controller</text>
</g>
<!-- \\App\\Controller\\GraphQL\\IndexController&#45;&gt;\\Symfony\\Bundle\\FrameworkBundle\\Controller\\Controller -->
<g id="edge1" class="edge"><title>\\App\\Controller\\GraphQL\\IndexController&#45;&gt;\\Symfony\\Bundle\\FrameworkBundle\\Controller\\Controller</title>
<path fill="none" stroke="black" d="M600.758,-1493.69C594.863,-1490.71 589.442,-1486.89 585.053,-1482 493.232,-1379.81 561.045,-1311.61 529.053,-1178 446.625,-833.753 311.627,-424.995 274.965,-315.895"/>
<polygon fill="none" stroke="black" points="278.237,-314.645 271.729,-306.284 271.603,-316.878 278.237,-314.645"/>
</g>
<!-- \\App\\Controller\\IndexController -->
<g id="node2" class="node"><title>\\App\\Controller\\IndexController</title>
<polygon fill="none" stroke="black" points="719.053,-1468 601.053,-1468 601.053,-1432 719.053,-1432 719.053,-1468"/>
<text text-anchor="middle" x="660.053" y="-1447.2" font-family="Courier,monospace" font-size="11.00">IndexController</text>
</g>
<!-- \\App\\Controller\\IndexController&#45;&gt;\\Symfony\\Bundle\\FrameworkBundle\\Controller\\Controller -->
<g id="edge2" class="edge"><title>\\App\\Controller\\IndexController&#45;&gt;\\Symfony\\Bundle\\FrameworkBundle\\Controller\\Controller</title>
<path fill="none" stroke="black" d="M600.798,-1433.01C594.896,-1429.45 589.463,-1425.17 585.053,-1420 513.384,-1336.03 557.182,-1284.75 529.053,-1178 438.761,-835.328 309.137,-424.645 274.38,-315.651"/>
<polygon fill="none" stroke="black" points="277.693,-314.52 271.317,-306.058 271.025,-316.649 277.693,-314.52"/>
</g>
<!-- \\App\\Entity\\Game -->
<g id="node3" class="node"><title>\\App\\Entity\\Game</title>
<polygon fill="none" stroke="black" points="687.053,-1388 633.053,-1388 633.053,-1352 687.053,-1352 687.053,-1388"/>
<text text-anchor="middle" x="660.053" y="-1367.2" font-family="Courier,monospace" font-size="11.00">Game</text>
</g>
<!-- \\App\\Entity\\Genre -->
<g id="node4" class="node"><title>\\App\\Entity\\Genre</title>
<polygon fill="none" stroke="black" points="687.053,-1334 633.053,-1334 633.053,-1298 687.053,-1298 687.053,-1334"/>
<text text-anchor="middle" x="660.053" y="-1313.2" font-family="Courier,monospace" font-size="11.00">Genre</text>
</g>
<!-- \\App\\GraphQL\\Buffer\\GenreBuffer -->
<g id="node5" class="node"><title>\\App\\GraphQL\\Buffer\\GenreBuffer</title>
<polygon fill="none" stroke="black" points="705.553,-1226 614.553,-1226 614.553,-1190 705.553,-1190 705.553,-1226"/>
<text text-anchor="middle" x="660.053" y="-1205.2" font-family="Courier,monospace" font-size="11.00">GenreBuffer</text>
</g>
<!-- \\App\\GraphQL\\Buffer\\BufferInterface -->
<g id="node6" class="node"><title>\\App\\GraphQL\\Buffer\\BufferInterface</title>
<polygon fill="none" stroke="black" points="323.527,-1226 205.527,-1226 205.527,-1190 323.527,-1190 323.527,-1226"/>
<text text-anchor="middle" x="264.527" y="-1205.2" font-family="Courier,monospace" font-size="11.00">BufferInterface</text>
</g>
<!-- \\App\\GraphQL\\Buffer\\GenreBuffer&#45;&gt;\\App\\GraphQL\\Buffer\\BufferInterface -->
<g id="edge4" class="edge"><title>\\App\\GraphQL\\Buffer\\GenreBuffer&#45;&gt;\\App\\GraphQL\\Buffer\\BufferInterface</title>
<path fill="none" stroke="black" stroke-dasharray="1,5" d="M614.294,-1208C545.712,-1208 414.136,-1208 333.66,-1208"/>
<polygon fill="none" stroke="black" points="333.623,-1204.5 323.623,-1208 333.623,-1211.5 333.623,-1204.5"/>
</g>
<!-- \\App\\GraphQL\\Resolver\\GenreResolver -->
<g id="node7" class="node"><title>\\App\\GraphQL\\Resolver\\GenreResolver</title>
<polygon fill="none" stroke="black" points="712.053,-1012 608.053,-1012 608.053,-976 712.053,-976 712.053,-1012"/>
<text text-anchor="middle" x="660.053" y="-991.2" font-family="Courier,monospace" font-size="11.00">GenreResolver</text>
</g>
<!-- \\App\\GraphQL\\Resolver\\Resolver -->
<g id="node23" class="node"><title>\\App\\GraphQL\\Resolver\\Resolver</title>
<ellipse fill="none" stroke="black" cx="264.527" cy="-234" rx="135.676" ry="18"/>
<text text-anchor="middle" x="264.527" y="-230.3" font-family="Times New Roman,serif" font-size="14.00" fill="gray">\App\GraphQL\Resolver\Resolver</text>
</g>
<!-- \\App\\GraphQL\\Resolver\\GenreResolver&#45;&gt;\\App\\GraphQL\\Resolver\\Resolver -->
<g id="edge5" class="edge"><title>\\App\\GraphQL\\Resolver\\GenreResolver&#45;&gt;\\App\\GraphQL\\Resolver\\Resolver</title>
<path fill="none" stroke="black" d="M607.712,-981.897C598.923,-977.616 590.79,-971.826 585.053,-964 492.4,-837.605 638.609,-373.061 529.053,-261 483.237,-214.136 406.769,-211.08 347.972,-217.582"/>
<polygon fill="none" stroke="black" points="347.459,-214.118 337.954,-218.8 348.304,-221.067 347.459,-214.118"/>
</g>
<!-- \\App\\GraphQL\\Service\\GameService -->
<g id="node8" class="node"><title>\\App\\GraphQL\\Service\\GameService</title>
<polygon fill="none" stroke="black" points="705.553,-1146 614.553,-1146 614.553,-1110 705.553,-1110 705.553,-1146"/>
<text text-anchor="middle" x="660.053" y="-1125.2" font-family="Courier,monospace" font-size="11.00">GameService</text>
</g>
<!-- \\App\\GraphQL\\Service\\GenreService -->
<g id="node9" class="node"><title>\\App\\GraphQL\\Service\\GenreService</title>
<polygon fill="none" stroke="black" points="709.053,-1092 611.053,-1092 611.053,-1056 709.053,-1056 709.053,-1092"/>
<text text-anchor="middle" x="660.053" y="-1071.2" font-family="Courier,monospace" font-size="11.00">GenreService</text>
</g>
<!-- \\App\\GraphQL\\Type\\GameType -->
<g id="node10" class="node"><title>\\App\\GraphQL\\Type\\GameType</title>
<polygon fill="none" stroke="black" points="695.553,-932 624.553,-932 624.553,-896 695.553,-896 695.553,-932"/>
<text text-anchor="middle" x="660.053" y="-911.2" font-family="Courier,monospace" font-size="11.00">GameType</text>
</g>
<!-- \\GraphQL\\Type\\Definition\\ObjectType -->
<g id="node24" class="node"><title>\\GraphQL\\Type\\Definition\\ObjectType</title>
<ellipse fill="none" stroke="black" cx="264.527" cy="-180" rx="153.273" ry="18"/>
<text text-anchor="middle" x="264.527" y="-176.3" font-family="Times New Roman,serif" font-size="14.00" fill="gray">\GraphQL\Type\Definition\ObjectType</text>
</g>
<!-- \\App\\GraphQL\\Type\\GameType&#45;&gt;\\GraphQL\\Type\\Definition\\ObjectType -->
<g id="edge6" class="edge"><title>\\App\\GraphQL\\Type\\GameType&#45;&gt;\\GraphQL\\Type\\Definition\\ObjectType</title>
<path fill="none" stroke="black" d="M624.351,-909.64C609.941,-905.988 594.424,-899.288 585.053,-887 493.106,-766.438 635.193,-315.277 529.053,-207 484.011,-161.051 409.493,-157.261 351.169,-163.273"/>
<polygon fill="none" stroke="black" points="350.757,-159.797 341.218,-164.409 351.551,-166.752 350.757,-159.797"/>
</g>
<!-- \\App\\GraphQL\\Type\\GenreType -->
<g id="node11" class="node"><title>\\App\\GraphQL\\Type\\GenreType</title>
<polygon fill="none" stroke="black" points="698.553,-878 621.553,-878 621.553,-842 698.553,-842 698.553,-878"/>
<text text-anchor="middle" x="660.053" y="-857.2" font-family="Courier,monospace" font-size="11.00">GenreType</text>
</g>
<!-- \\App\\GraphQL\\Type\\GenreType&#45;&gt;\\GraphQL\\Type\\Definition\\ObjectType -->
<g id="edge7" class="edge"><title>\\App\\GraphQL\\Type\\GenreType&#45;&gt;\\GraphQL\\Type\\Definition\\ObjectType</title>
<path fill="none" stroke="black" d="M621.319,-854.786C607.822,-850.975 593.801,-844.387 585.053,-833 499.965,-722.244 627.174,-306.393 529.053,-207 484.095,-161.459 410.155,-157.448 352.021,-163.275"/>
<polygon fill="none" stroke="black" points="351.28,-159.836 341.731,-164.424 352.057,-166.792 351.28,-159.836"/>
</g>
<!-- \\App\\GraphQL\\Type\\MutationType -->
<g id="node12" class="node"><title>\\App\\GraphQL\\Type\\MutationType</title>
<polygon fill="none" stroke="black" points="709.053,-824 611.053,-824 611.053,-788 709.053,-788 709.053,-824"/>
<text text-anchor="middle" x="660.053" y="-803.2" font-family="Courier,monospace" font-size="11.00">MutationType</text>
</g>
<!-- \\App\\GraphQL\\Type\\MutationType&#45;&gt;\\GraphQL\\Type\\Definition\\ObjectType -->
<g id="edge8" class="edge"><title>\\App\\GraphQL\\Type\\MutationType&#45;&gt;\\GraphQL\\Type\\Definition\\ObjectType</title>
<path fill="none" stroke="black" d="M610.953,-797.221C601.009,-793.232 591.587,-787.432 585.053,-779 506.821,-678.046 619.16,-297.514 529.053,-207 484.058,-161.801 410.482,-157.648 352.494,-163.334"/>
<polygon fill="none" stroke="black" points="351.786,-159.891 342.226,-164.458 352.548,-166.849 351.786,-159.891"/>
</g>
<!-- \\App\\GraphQL\\Type\\QueryType -->
<g id="node13" class="node"><title>\\App\\GraphQL\\Type\\QueryType</title>
<polygon fill="none" stroke="black" points="698.553,-770 621.553,-770 621.553,-734 698.553,-734 698.553,-770"/>
<text text-anchor="middle" x="660.053" y="-749.2" font-family="Courier,monospace" font-size="11.00">QueryType</text>
</g>
<!-- \\App\\GraphQL\\Type\\QueryType&#45;&gt;\\GraphQL\\Type\\Definition\\ObjectType -->
<g id="edge9" class="edge"><title>\\App\\GraphQL\\Type\\QueryType&#45;&gt;\\GraphQL\\Type\\Definition\\ObjectType</title>
<path fill="none" stroke="black" d="M621.201,-749.272C607.856,-746.352 593.971,-740.713 585.053,-730 510.268,-640.168 611.893,-289.462 529.053,-207 484.007,-162.159 410.795,-157.864 352.956,-163.406"/>
<polygon fill="none" stroke="black" points="352.284,-159.958 342.714,-164.504 353.03,-166.918 352.284,-159.958"/>
</g>
<!-- \\App\\GraphQL\\GraphQLService -->
<g id="node14" class="node"><title>\\App\\GraphQL\\GraphQLService</title>
<polygon fill="none" stroke="black" points="715.553,-716 604.553,-716 604.553,-680 715.553,-680 715.553,-716"/>
<text text-anchor="middle" x="660.053" y="-695.2" font-family="Courier,monospace" font-size="11.00">GraphQLService</text>
</g>
<!-- \\App\\GraphQL\\Queries -->
<g id="node15" class="node"><title>\\App\\GraphQL\\Queries</title>
<polygon fill="none" stroke="black" points="692.053,-662 628.053,-662 628.053,-626 692.053,-626 692.053,-662"/>
<text text-anchor="middle" x="660.053" y="-641.2" font-family="Courier,monospace" font-size="11.00">Queries</text>
</g>
<!-- \\App\\GraphQL\\Types -->
<g id="node16" class="node"><title>\\App\\GraphQL\\Types</title>
<polygon fill="none" stroke="black" points="687.053,-608 633.053,-608 633.053,-572 687.053,-572 687.053,-608"/>
<text text-anchor="middle" x="660.053" y="-587.2" font-family="Courier,monospace" font-size="11.00">Types</text>
</g>
<!-- \\App\\Repository\\GenreRepository -->
<g id="node17" class="node"><title>\\App\\Repository\\GenreRepository</title>
<polygon fill="none" stroke="black" points="719.053,-528 601.053,-528 601.053,-492 719.053,-492 719.053,-528"/>
<text text-anchor="middle" x="660.053" y="-507.2" font-family="Courier,monospace" font-size="11.00">GenreRepository</text>
</g>
<!-- \\Doctrine\\Bundle\\DoctrineBundle\\Repository\\ServiceEntityRepository -->
<g id="node26" class="node"><title>\\Doctrine\\Bundle\\DoctrineBundle\\Repository\\ServiceEntityRepository</title>
<ellipse fill="none" stroke="black" cx="264.527" cy="-126" rx="264.553" ry="18"/>
<text text-anchor="middle" x="264.527" y="-122.3" font-family="Times New Roman,serif" font-size="14.00" fill="gray">\Doctrine\Bundle\DoctrineBundle\Repository\ServiceEntityRepository</text>
</g>
<!-- \\App\\Repository\\GenreRepository&#45;&gt;\\Doctrine\\Bundle\\DoctrineBundle\\Repository\\ServiceEntityRepository -->
<g id="edge11" class="edge"><title>\\App\\Repository\\GenreRepository&#45;&gt;\\Doctrine\\Bundle\\DoctrineBundle\\Repository\\ServiceEntityRepository</title>
<path fill="none" stroke="black" d="M601.039,-499.945C595.018,-496.921 589.491,-493.022 585.053,-488 485.094,-374.883 639.131,-256.297 529.053,-153 488.568,-115.008 427.664,-106.843 374.603,-108.823"/>
<polygon fill="none" stroke="black" points="374.263,-105.336 364.449,-109.327 374.61,-112.327 374.263,-105.336"/>
</g>
<!-- \\App\\CustomError -->
<g id="node18" class="node"><title>\\App\\CustomError</title>
<polygon fill="none" stroke="black" points="705.553,-474 614.553,-474 614.553,-438 705.553,-438 705.553,-474"/>
<text text-anchor="middle" x="660.053" y="-453.2" font-family="Courier,monospace" font-size="11.00">CustomError</text>
</g>
<!-- \\App\\CustomException -->
<g id="node19" class="node"><title>\\App\\CustomException</title>
<polygon fill="none" stroke="black" points="719.053,-420 601.053,-420 601.053,-384 719.053,-384 719.053,-420"/>
<text text-anchor="middle" x="660.053" y="-399.2" font-family="Courier,monospace" font-size="11.00">CustomException</text>
</g>
<!-- \\Exception -->
<g id="node22" class="node"><title>\\Exception</title>
<ellipse fill="none" stroke="black" cx="264.527" cy="-72" rx="50.0912" ry="18"/>
<text text-anchor="middle" x="264.527" y="-68.3" font-family="Times New Roman,serif" font-size="14.00" fill="gray">\Exception</text>
</g>
<!-- \\App\\CustomException&#45;&gt;\\Exception -->
<g id="edge3" class="edge"><title>\\App\\CustomException&#45;&gt;\\Exception</title>
<path fill="none" stroke="black" d="M600.722,-387.552C594.833,-384.204 589.424,-380.079 585.053,-375 503.412,-280.125 621.791,-183.061 529.053,-99 471.995,-47.2808 376.834,-51.6679 317.827,-60.8915"/>
<polygon fill="none" stroke="black" points="316.894,-57.4986 307.605,-62.5941 318.045,-64.4034 316.894,-57.4986"/>
</g>
<!-- \\App\\Kernel -->
<g id="node20" class="node"><title>\\App\\Kernel</title>
<polygon fill="none" stroke="black" points="688.553,-366 631.553,-366 631.553,-330 688.553,-330 688.553,-366"/>
<text text-anchor="middle" x="660.053" y="-345.2" font-family="Courier,monospace" font-size="11.00">Kernel</text>
</g>
<!-- \\Symfony\\Component\\HttpKernel\\Kernel -->
<g id="node25" class="node"><title>\\Symfony\\Component\\HttpKernel\\Kernel</title>
<ellipse fill="none" stroke="black" cx="264.527" cy="-18" rx="159.472" ry="18"/>
<text text-anchor="middle" x="264.527" y="-14.3" font-family="Times New Roman,serif" font-size="14.00" fill="gray">\Symfony\Component\HttpKernel\Kernel</text>
</g>
<!-- \\App\\Kernel&#45;&gt;\\Symfony\\Component\\HttpKernel\\Kernel -->
<g id="edge10" class="edge"><title>\\App\\Kernel&#45;&gt;\\Symfony\\Component\\HttpKernel\\Kernel</title>
<path fill="none" stroke="black" d="M657.436,-329.835C651.581,-275.985 626.375,-116.527 529.053,-45 488.401,-15.1225 434.2,-5.89272 385.527,-5.10129"/>
<polygon fill="none" stroke="black" points="385.246,-1.60012 375.231,-5.0561 385.216,-8.60006 385.246,-1.60012"/>
</g>
</g>
</svg>
